User Type,Username,Date,Text
,sahs,2013-02-13T02:29Z,"Thanks, Pls upload From Russia With Love (1963), if possible."
,soletar,2013-02-13T17:15Z,"Waited anxiously for your own version, kept checking back...no offence to YIFY, but you are the best there is / ever was"
,darcon9672,2013-02-13T22:39Z,how many channels is the audio 2 or 6 
,anurag43,2013-02-15T11:17Z,please upload the snapshots with your every movie cos some of us won't even touch the torrent if you don't have the snapshots uploaded...
,soletar,2013-02-16T16:45Z,"@anurag, King Kickass is like Bruce Wayne. He just went into exile for a while. He was one of the best ever uploaders. I just click on his torrents, quality guaranteed!"
,rumplestilts,2013-02-17T04:44Z,Nice work. Thanks.
,lawlwut1,2013-02-18T05:53Z,"here is the detailed info

General
Complete name                  : C:Documents and SettingslawlMy DocumentsDownloadsSkyfall (2012) BRRip x264 720p ~ MrKickASSSkyfall (2012) 720p - Rips4u.com.mp4
Format                         : MPEG-4
Format profile                 : Base Media
Codec ID                       : isom
File size                      : 1.07 GiB
Duration                       : 2h 23mn
Overall bit rate mode          : Variable
Overall bit rate               : 1 073 Kbps
Encoded date                   : UTC 2013-02-03 21:14:27
Tagged date                    : UTC 2013-02-03 21:14:27

Video
ID                             : 1
Format                         : AVC
Format/Info                    : Advanced Video Codec
Format profile                 : High@L4.0
Format settings, CABAC         : Yes
Format settings, ReFrames      : 8 frames
Codec ID                       : avc1
Codec ID/Info                  : Advanced Video Coding
Duration                       : 2h 23mn
Bit rate                       : 941 Kbps
Maximum bit rate               : 11.5 Mbps
Width                          : 1 280 pixels
Height                         : 544 pixels
Display aspect ratio           : 2.35:1
Frame rate mode                : Constant
Frame rate                     : 23.976 fps
Color space                    : YUV
Chroma subsampling             : 4:2:0
Bit depth                      : 8 bits
Scan type                      : Progressive
Bits/(Pixel*Frame)             : 0.056
Stream size                    : 963 MiB (88%)
Writing library                : x264 core 125 r2208 d9d2288
Encoding settings              : cabac=1 / ref=8 / deblock=1:0:-1 / analyse=0x3:0x133 / me=umh / subme=7 / psy=1 / psy_rd=1.00:0.10 / mixed_ref=1 / me_range=16 / chroma_me=1 / trellis=2 / 8x8dct=1 / cqm=0 / deadzone=21,11 / fast_pskip=0 / chroma_qp_offset=-3 / threads=12 / lookahead_threads=2 / sliced_threads=0 / nr=0 / decimate=1 / interlaced=0 / bluray_compat=0 / constrained_intra=0 / bframes=3 / b_pyramid=2 / b_adapt=2 / b_bias=0 / direct=3 / weightb=1 / open_gop=0 / weightp=2 / keyint=250 / keyint_min=23 / scenecut=40 / intra_refresh=0 / rc_lookahead=50 / rc=2pass / mbtree=1 / bitrate=941 / ratetol=1.0 / qcomp=0.60 / qpmin=0 / qpmax=69 / qpstep=4 / cplxblur=20.0 / qblur=0.5 / ip_ratio=1.40 / aq=1:1.50
Encoded date                   : UTC 2013-02-03 21:14:27
Tagged date                    : UTC 2013-02-03 21:17:16

Audio
ID                             : 2
Format                         : AAC
Format/Info                    : Advanced Audio Codec
Format profile                 : LC
Codec ID                       : 40
Duration                       : 2h 23mn
Bit rate mode                  : Variable
Bit rate                       : 128 Kbps
Maximum bit rate               : 138 Kbps
Channel(s)                     : 2 channels
Channel positions              : Front: L R
Sampling rate                  : 48.0 KHz
Compression mode               : Lossy
Delay relative to video        : 83ms
Stream size                    : 131 MiB (12%)
Encoded date                   : UTC 2013-02-03 21:16:57
Tagged date                    : UTC 2013-02-03 21:17:16
"
,soletar,2013-03-02T14:35Z,"Almost ejaculated watching just how clear this movie was....i am not talking about the storyline, but just awesome this uploader's efforts were!. Thank you, King Kickass"
,stevephp,2013-03-05T18:20Z,Thanks Great Quality
